<?xml version="1.0" encoding="utf-8"?>
<!-- Generator: Adobe Illustrator 15.1.0, SVG Export Plug-In . SVG Version: 6.00 Build 0)  -->
<!DOCTYPE svg PUBLIC "-//W3C//DTD SVG 1.1//EN" "http://www.w3.org/Graphics/SVG/1.1/DTD/svg11.dtd">
<svg version="1.1" xmlns="http://www.w3.org/2000/svg" xmlns:xlink="http://www.w3.org/1999/xlink" x="0px" y="0px" width="100px"
	 height="100px" viewBox="0 0 100 100" enable-background="new 0 0 100 100" xml:space="preserve">
<g id="Layer_1" display="none">
	<path display="inline" fill="#B94A48" d="M14.697,14.697c-19.565,19.564-19.565,51.286,0,70.855
		c19.567,19.565,51.29,19.565,70.855,0c19.565-19.569,19.565-51.291,0-70.855C65.983-4.868,34.265-4.868,14.697,14.697z
		 M78.465,78.465c-15.653,15.654-41.031,15.654-56.683,0c-15.655-15.653-15.655-41.031,0-56.683
		c15.652-15.653,41.029-15.653,56.683,0C94.119,37.436,94.119,62.814,78.465,78.465z"/>
	<g display="inline">
		<path fill="#B94A48" d="M45.677,20.688c1.194-1.285,2.782-1.931,4.741-1.931c2.373,0,3.962,0.827,4.763,2.467
			c0.805,1.644,1.199,4.012,1.199,7.108c0,1.825-0.093,3.673-0.291,5.554l-1.773,20.424c-0.194,2.433-0.612,4.297-1.243,5.593
			c-0.644,1.3-1.686,1.955-3.145,1.955c-1.501,0-2.53-0.634-3.115-1.893c-0.582-1.255-0.995-3.171-1.241-5.741l-1.332-19.842
			c-0.248-3.869-0.372-6.645-0.372-8.329C43.869,23.761,44.469,21.971,45.677,20.688z"/>
		<path fill="#B94A48" d="M54.525,79.834c-1.248,1.107-2.691,1.658-4.358,1.658c-1.687,0-3.155-0.546-4.411-1.641
			c-1.257-1.088-1.891-2.613-1.891-4.572c0-1.712,0.602-3.17,1.805-4.374c1.201-1.199,2.676-1.796,4.42-1.796
			s3.217,0.598,4.453,1.796c1.231,1.204,1.839,2.665,1.839,4.374C56.382,77.212,55.766,78.728,54.525,79.834z"/>
	</g>
</g>
<g id="Layer_2">
	<path fill="#3A87AD" d="M18.52,6.895C9.581,7.045,0,12.862,0,25.434v30.57c0.107,8.405,5.374,17.288,16.449,18.338
		c0,3.217,0,18.264,0,18.264s26.046-17.342,27.168-18.062c1.365,0,37.845,0,37.845,0C90.419,74.428,100,68.572,100,56.004V25.41
		c-0.124-8.948-5.982-18.515-18.538-18.515H18.52z"/>
</g>
</svg>
