<?xml version="1.0" encoding="utf-8"?>
<!-- Generator: Adobe Illustrator 15.1.0, SVG Export Plug-In . SVG Version: 6.00 Build 0)  -->
<!DOCTYPE svg PUBLIC "-//W3C//DTD SVG 1.1//EN" "http://www.w3.org/Graphics/SVG/1.1/DTD/svg11.dtd">
<svg version="1.1" xmlns="http://www.w3.org/2000/svg" xmlns:xlink="http://www.w3.org/1999/xlink" x="0px" y="0px" width="100px"
	 height="100px" viewBox="0 0 100 100" enable-background="new 0 0 100 100" xml:space="preserve">
<g id="Layer_1" display="none">
	<path display="inline" fill="#B94A48" d="M14.697,14.697c-19.565,19.564-19.565,51.286,0,70.855
		c19.567,19.565,51.29,19.565,70.855,0c19.565-19.569,19.565-51.291,0-70.855C65.983-4.868,34.265-4.868,14.697,14.697z
		 M78.465,78.465c-15.653,15.654-41.031,15.654-56.683,0c-15.655-15.653-15.655-41.031,0-56.683
		c15.652-15.653,41.029-15.653,56.683,0C94.119,37.436,94.119,62.814,78.465,78.465z"/>
	<g display="inline">
		<path fill="#B94A48" d="M45.677,20.688c1.194-1.285,2.782-1.931,4.741-1.931c2.373,0,3.962,0.827,4.763,2.467
			c0.805,1.644,1.199,4.012,1.199,7.108c0,1.825-0.093,3.673-0.291,5.554l-1.773,20.424c-0.194,2.433-0.612,4.297-1.243,5.593
			c-0.644,1.3-1.686,1.955-3.145,1.955c-1.501,0-2.53-0.634-3.115-1.893c-0.582-1.255-0.995-3.171-1.241-5.741l-1.332-19.842
			c-0.248-3.869-0.372-6.645-0.372-8.329C43.869,23.761,44.469,21.971,45.677,20.688z"/>
		<path fill="#B94A48" d="M54.525,79.834c-1.248,1.107-2.691,1.658-4.358,1.658c-1.687,0-3.155-0.546-4.411-1.641
			c-1.257-1.088-1.891-2.613-1.891-4.572c0-1.712,0.602-3.17,1.805-4.374c1.201-1.199,2.676-1.796,4.42-1.796
			s3.217,0.598,4.453,1.796c1.231,1.204,1.839,2.665,1.839,4.374C56.382,77.212,55.766,78.728,54.525,79.834z"/>
	</g>
</g>
<g id="Layer_2" display="none">
	<path display="inline" fill="#3A87AD" d="M18.52,6.895C9.581,7.045,0,12.862,0,25.434v30.57
		c0.107,8.405,5.374,17.288,16.449,18.338c0,3.217,0,18.264,0,18.264s26.046-17.342,27.168-18.062c1.365,0,37.845,0,37.845,0
		C90.419,74.428,100,68.572,100,56.004V25.41c-0.124-8.948-5.982-18.515-18.538-18.515H18.52z"/>
</g>
<g id="Layer_3">
	<path fill="#468847" d="M72.819,36.361v-7.002c0-5.971-4.844-10.812-10.821-10.812h-2.221v-6.508c0-1.818-1.475-3.292-3.292-3.292
		c-1.815,0-3.296,1.475-3.296,3.292v13.253c0,1.626-1.314,2.94-2.939,2.94c-1.617,0-2.926-1.314-2.926-2.94v-6.745h-5.707v-6.508
		c0-1.818-1.474-3.292-3.293-3.292c-1.822,0-3.293,1.475-3.293,3.292v13.253c0,1.626-1.311,2.94-2.939,2.94
		c-1.615,0-2.926-1.314-2.926-2.94v-6.745h-5.633v-6.508c0-1.818-1.479-3.292-3.293-3.292c-1.822,0-3.296,1.475-3.296,3.292v13.253
		c0,1.626-1.31,2.94-2.935,2.94c-1.621,0-2.93-1.314-2.93-2.94v-6.745C5.111,18.555,0.275,23.393,0.275,29.359v43.967
		c0,5.979,4.84,10.818,10.814,10.818h43.674c4.766,4.114,10.971,6.608,17.763,6.608c15.021,0,27.198-12.181,27.198-27.198
		C99.725,48.63,87.707,36.521,72.819,36.361z M48.434,50.941v-3.504h-9.928v6.049h8.754c-0.424,1.066-0.791,2.162-1.08,3.295h-7.674
		v6.048h6.84c-0.006,0.239-0.02,0.479-0.02,0.726c0,0.868,0.051,1.723,0.131,2.57h-6.953v6.046h8.229
		c0.378,1.136,0.819,2.239,1.34,3.301H12.086c-1.922,0-3.487-1.559-3.487-3.481V44.145h44.88
		C51.463,46.122,49.76,48.419,48.434,50.941z M72.526,81.628c-9.987,0-18.08-8.091-18.08-18.075c0-9.982,8.093-18.076,18.08-18.076
		c9.978,0,18.073,8.094,18.073,18.076C90.6,73.537,82.504,81.628,72.526,81.628z"/>
	<rect x="11.869" y="56.781" width="9.928" height="6.048"/>
	<rect x="11.869" y="66.125" width="9.928" height="6.046"/>
	<rect x="25.09" y="47.438" width="10.121" height="6.049"/>
	<rect x="25.09" y="56.781" width="10.121" height="6.048"/>
	<rect x="25.09" y="66.125" width="10.121" height="6.046"/>
	<path fill="#468847" d="M74.873,61.184c-0.139-0.139-0.289-0.255-0.447-0.365l0.015-0.017l-11.248-8.476
		c-0.455-0.461-1.201-0.461-1.657-0.004c-0.461,0.462-0.459,1.201,0.002,1.662l8.131,10.791l1.767,6.979
		c0.233,0.744,0.522,1.176,1.167,1.171c0.652,0.005,0.951-0.445,1.178-1.171l1.977-7.674h-0.022c0-0.013,0-0.025,0.003-0.037
		C75.936,63.045,75.649,61.962,74.873,61.184z"/>
	<rect x="11.869" y="56.781" width="9.928" height="6.048"/>
	<rect x="11.869" y="66.125" width="9.928" height="6.046"/>
	<rect x="25.09" y="47.438" width="10.121" height="6.049"/>
	<rect x="25.09" y="56.781" width="10.121" height="6.048"/>
	<rect x="25.09" y="66.125" width="10.121" height="6.046"/>
	<path fill="#468847" d="M72.519,51.652c1.019-0.002,1.837-0.816,1.833-1.834c0-1.014-0.823-1.826-1.825-1.824
		c-1.021,0.002-1.837,0.816-1.836,1.824C70.689,50.835,71.506,51.663,72.519,51.652z"/>
	<rect x="11.869" y="56.781" width="9.928" height="6.048"/>
	<rect x="11.869" y="66.125" width="9.928" height="6.046"/>
	<rect x="25.09" y="47.438" width="10.121" height="6.049"/>
	<rect x="25.09" y="56.781" width="10.121" height="6.048"/>
	<rect x="25.09" y="66.125" width="10.121" height="6.046"/>
	<path fill="#468847" d="M84.273,63.425c0,1.017,0.824,1.828,1.833,1.833c1.01-0.005,1.833-0.827,1.829-1.839
		c0.002-1.005-0.814-1.829-1.829-1.826C85.09,61.585,84.277,62.411,84.273,63.425z"/>
	<rect x="11.869" y="56.781" width="9.928" height="6.048"/>
	<rect x="11.869" y="66.125" width="9.928" height="6.046"/>
	<rect x="25.09" y="47.438" width="10.121" height="6.049"/>
	<rect x="25.09" y="56.781" width="10.121" height="6.048"/>
	<rect x="25.09" y="66.125" width="10.121" height="6.046"/>
	<path fill="#468847" d="M72.526,75.154c-1.015,0-1.829,0.817-1.836,1.824c0.003,1.018,0.817,1.834,1.832,1.842
		c1.015-0.002,1.833-0.827,1.833-1.838C74.355,75.973,73.537,75.154,72.526,75.154z"/>
	<rect x="11.869" y="56.781" width="9.928" height="6.048"/>
	<rect x="11.869" y="66.125" width="9.928" height="6.046"/>
	<rect x="25.09" y="47.438" width="10.121" height="6.049"/>
	<rect x="25.09" y="56.781" width="10.121" height="6.048"/>
	<rect x="25.09" y="66.125" width="10.121" height="6.046"/>
	<path fill="#468847" d="M58.93,61.597c-1.01-0.002-1.836,0.814-1.834,1.828c0,1.017,0.822,1.833,1.834,1.837
		c1.015-0.004,1.83-0.828,1.836-1.837C60.764,62.411,59.94,61.595,58.93,61.597z"/>
	<rect x="11.869" y="56.781" fill="#468847" width="9.928" height="6.048"/>
	<rect x="11.869" y="66.125" fill="#468847" width="9.928" height="6.046"/>
	<rect x="25.09" y="47.438" fill="#468847" width="10.121" height="6.049"/>
	<rect x="25.09" y="56.781" fill="#468847" width="10.121" height="6.048"/>
	<rect x="25.09" y="66.125" fill="#468847" width="10.121" height="6.046"/>
</g>
</svg>
